<?xml version="1.0" standalone="no"?>
<!DOCTYPE svg PUBLIC "-//W3C//DTD SVG 20010904//EN"
 "http://www.w3.org/TR/2001/REC-SVG-20010904/DTD/svg10.dtd">
<svg version="1.0" xmlns="http://www.w3.org/2000/svg"
 width="415.000000pt" height="386.000000pt" viewBox="0 0 415.000000 386.000000"
 preserveAspectRatio="xMidYMid meet">

<g transform="translate(0.000000,386.000000) scale(0.100000,-0.100000)"
fill="#000000" stroke="none">
<path d="M2150 3470 c-707 -86 -1272 -639 -1361 -1330 l-11 -89 -48 -20 c-72
-31 -133 -41 -286 -50 l-139 -7 73 -36 c42 -21 103 -41 145 -48 l71 -13 -93
-43 c-111 -52 -242 -137 -291 -190 -19 -20 -28 -34 -19 -31 36 12 247 56 299
62 30 3 65 8 78 11 40 8 23 -10 -41 -44 -68 -35 -128 -79 -92 -67 81 26 216
55 262 55 76 0 110 -20 123 -73 48 -185 130 -362 240 -519 83 -119 249 -284
370 -370 445 -315 1037 -371 1533 -144 241 110 471 302 622 519 46 66 68 89
95 98 53 18 143 114 163 173 21 62 22 175 2 223 -14 34 -14 46 2 133 23 131
23 390 -1 525 -36 206 -128 430 -249 610 -80 118 -284 322 -402 402 -179 121
-406 214 -605 248 -116 19 -339 27 -440 15z m471 -69 c456 -98 839 -394 1043
-806 63 -128 98 -228 128 -369 33 -156 34 -477 2 -575 -4 -12 -7 -12 -20 1
-14 14 -14 27 -3 114 38 301 -40 657 -201 919 -219 357 -553 589 -980 681
-129 28 -419 26 -557 -4 -586 -127 -1024 -567 -1142 -1145 -19 -95 -33 -127
-53 -127 -13 0 -2 82 28 203 63 254 190 479 378 675 248 257 530 398 911 456
77 11 372 -3 466 -23z m-313 -108 c11 -10 23 -28 27 -40 5 -20 3 -23 -20 -23
-14 0 -28 7 -31 15 -8 19 -44 20 -44 1 0 -8 11 -16 23 -20 13 -3 36 -15 50
-27 54 -42 19 -139 -51 -139 -27 0 -72 31 -72 50 0 4 -3 15 -6 24 -5 12 1 16
24 16 21 0 31 -6 35 -20 6 -24 32 -26 41 -4 7 18 -10 44 -29 44 -7 0 -24 9
-39 21 -34 27 -36 81 -4 103 30 21 71 20 96 -1z m219 -15 c29 -27 31 -68 4
-68 -10 0 -25 10 -33 22 -11 16 -20 19 -34 14 -19 -8 -19 -8 1 -19 11 -7 34
-26 52 -43 30 -29 32 -34 23 -65 -19 -65 -74 -87 -124 -48 -33 26 -37 79 -6
79 13 0 24 -10 30 -25 11 -29 35 -33 45 -7 4 11 -1 22 -15 32 -47 32 -70 60
-70 85 0 59 81 87 127 43z m-442 -23 c32 -31 32 -51 0 -57 -17 -4 -25 -1 -25
8 0 8 -11 14 -25 14 -21 0 -25 -5 -25 -27 0 -55 20 -103 41 -103 12 0 23 8 26
20 6 23 41 36 56 21 18 -18 -4 -63 -41 -84 -66 -38 -115 0 -132 103 -9 54 -9
72 1 88 29 46 88 54 124 17z m819 -76 c13 -7 30 -24 36 -39 10 -25 7 -39 -27
-117 -38 -85 -54 -102 -81 -85 -10 7 -5 26 23 87 41 91 43 105 13 105 -19 0
-29 -14 -57 -80 -18 -44 -37 -80 -43 -80 -5 0 -18 5 -28 10 -18 10 -17 15 21
98 22 48 47 93 56 100 21 15 54 15 87 1z m-1241 -154 l48 -84 35 21 c28 16 37
18 49 8 8 -7 15 -16 15 -20 0 -13 -114 -80 -122 -72 -3 4 -32 51 -64 106 -55
94 -57 99 -39 112 10 8 21 14 24 14 3 0 28 -38 54 -85z m1452 30 c37 -37 32
-73 -20 -144 -43 -58 -55 -66 -100 -61 -32 3 -65 40 -65 73 0 33 51 119 83
142 32 22 75 18 102 -10z m-1528 -123 c66 -71 73 -86 46 -96 -12 -5 -34 11
-78 54 -62 62 -81 71 -91 45 -4 -9 17 -40 55 -82 l62 -67 -20 -20 -20 -20 -62
67 c-62 68 -82 79 -93 51 -4 -10 14 -36 54 -78 33 -35 60 -67 60 -72 0 -5 -9
-15 -19 -21 -18 -11 -27 -5 -85 59 -54 58 -66 76 -66 104 0 36 28 74 54 74 8
0 21 12 28 27 16 34 55 55 88 48 14 -3 53 -36 87 -73z m993 28 c102 -25 268
-102 357 -166 136 -97 258 -240 332 -390 59 -120 107 -284 84 -284 -25 0 -274
72 -349 101 -73 28 -99 44 -147 92 -32 31 -63 57 -68 57 -5 0 -9 8 -9 18 0 10
-4 22 -9 28 -5 5 -14 71 -20 148 -7 76 -18 152 -25 170 -21 51 -67 97 -121
122 -146 69 -358 -7 -653 -233 -61 -46 -96 -66 -130 -73 -65 -12 -114 -31
-208 -78 -91 -46 -182 -75 -219 -70 l-26 3 51 82 c58 94 177 225 268 294 120
91 290 165 445 195 105 20 337 12 447 -16z m704 -41 c40 -48 35 -78 -27 -143
-64 -68 -97 -73 -158 -25 -21 17 -39 35 -39 40 0 5 37 47 81 94 89 93 93 94
143 34z m-684 -131 c76 -39 93 -80 102 -248 2 -41 1 -45 -22 -49 -14 -1 -73
-25 -132 -51 -76 -34 -108 -44 -108 -34 0 17 88 68 147 86 62 18 58 42 -4 34
-69 -10 -154 -55 -180 -95 -27 -40 -31 -91 -7 -91 9 0 13 -6 10 -12 -17 -43
-28 -89 -22 -95 4 -4 20 -2 36 4 28 10 30 10 30 -12 0 -57 19 -67 72 -39 28
15 33 15 43 1 10 -14 15 -14 51 3 21 9 66 34 98 54 33 20 67 36 76 36 9 0 31
-16 49 -36 18 -20 62 -49 97 -65 96 -43 292 -102 441 -134 194 -41 226 -67
227 -184 1 -55 -4 -74 -26 -113 -48 -81 -99 -99 -443 -158 -403 -69 -816 -107
-1075 -98 -185 6 -211 25 -237 174 l-16 89 52 265 c29 146 66 317 83 382 l31
116 86 65 c158 119 284 188 386 213 74 18 106 16 155 -8z m828 -33 c37 -53 39
-61 14 -74 -15 -8 -23 -4 -42 21 -20 27 -24 29 -38 15 -13 -14 -13 -18 -2 -33
12 -14 12 -18 -5 -30 -16 -12 -21 -12 -37 3 -17 15 -20 15 -35 1 -14 -15 -14
-19 6 -47 l22 -30 -21 -11 c-26 -14 -33 -9 -69 44 l-29 42 96 71 c53 39 100
72 103 72 3 1 20 -19 37 -44z m-2158 25 c13 -8 13 -13 2 -30 -17 -27 -11 -34
72 -91 68 -46 76 -58 52 -79 -12 -9 -29 -1 -92 46 -76 56 -78 56 -94 36 -12
-15 -21 -17 -33 -10 -24 13 -22 22 23 83 43 58 46 60 70 45z m70 -290 c0 -3
-6 -15 -14 -25 -13 -19 -15 -19 -56 0 -35 16 -43 17 -51 4 -6 -10 1 -19 31
-33 43 -21 48 -32 27 -60 -12 -16 -20 -14 -120 39 -59 31 -107 60 -107 64 0 4
6 16 14 27 14 19 15 18 59 -3 38 -18 46 -19 51 -8 3 10 -9 23 -34 37 -43 25
-45 29 -29 59 10 19 15 17 120 -38 60 -31 109 -60 109 -63z m1989 51 c17 -11
7 -41 -13 -41 -19 0 -29 17 -22 35 6 17 15 18 35 6z m90 -68 c7 -13 5 -23 -6
-36 -12 -13 -14 -20 -5 -29 8 -8 33 0 95 29 l85 41 11 -24 c6 -14 11 -27 11
-29 0 -12 -157 -75 -186 -75 -43 0 -74 30 -74 72 0 53 48 89 69 51z m-1529 3
c0 -2 -11 -46 -25 -98 -13 -51 -49 -218 -80 -370 -53 -261 -55 -281 -45 -340
6 -35 13 -71 16 -80 4 -13 -7 -20 -48 -32 -29 -9 -65 -24 -79 -33 -140 -96
-135 -95 -249 -59 -44 14 -90 22 -110 19 l-35 -4 40 22 c26 15 75 27 139 36
85 11 106 18 160 51 58 37 61 41 61 78 0 35 -3 39 -26 42 -19 2 -47 -14 -110
-64 l-83 -66 -61 7 c-81 10 -99 9 -175 -17 -74 -25 -149 -27 -200 -6 l-35 15
55 7 c30 4 108 25 172 47 64 21 131 39 148 39 74 0 140 55 140 117 0 25 -6 36
-23 44 -33 15 -72 -3 -195 -94 -58 -43 -118 -79 -137 -83 -19 -3 -58 -1 -87 6
-29 7 -89 15 -133 19 -74 7 -78 8 -52 19 16 7 89 21 163 31 78 11 145 26 159
35 31 20 32 52 3 83 -39 41 -98 28 -209 -48 l-62 -42 -71 9 c-39 5 -101 8
-138 7 -38 -1 -68 1 -68 3 0 15 115 53 175 59 79 8 107 20 185 81 67 52 119
75 151 67 13 -4 51 -24 84 -46 54 -35 65 -38 112 -35 120 10 198 128 84 128
-26 0 -50 -9 -77 -30 -21 -16 -44 -30 -50 -30 -6 0 -41 16 -77 35 -85 45 -121
45 -178 1 -79 -60 -128 -80 -199 -80 -36 0 -73 5 -84 11 -16 9 -12 11 23 17
67 10 120 36 185 89 70 56 128 86 169 87 16 0 59 -14 97 -30 76 -34 88 -32
164 18 22 15 50 33 61 38 11 7 20 21 20 35 0 39 -49 37 -115 -6 -61 -39 -74
-41 -145 -19 -33 10 -66 13 -97 9 -27 -4 -48 -4 -48 -1 0 13 49 29 111 36 57
6 80 15 140 53 46 30 91 50 127 57 97 19 164 41 237 78 100 50 225 94 225 78z
m724 -64 c-6 -4 -37 -28 -70 -53 -94 -72 -128 -94 -118 -77 18 31 183 152 194
142 2 -3 0 -8 -6 -12z m116 -46 c0 -8 -19 -30 -41 -50 -46 -39 -197 -121 -206
-112 -4 3 -1 24 6 46 11 36 18 43 102 85 93 46 139 56 139 31z m907 -58 c32
-30 31 -80 -3 -107 -15 -11 -30 -18 -35 -15 -12 7 -11 41 1 49 15 9 12 45 -4
45 -8 0 -16 -16 -20 -41 -8 -47 -45 -89 -79 -89 -35 0 -74 35 -82 72 -6 28 -3
36 24 60 38 34 47 35 53 4 3 -16 -2 -30 -15 -41 -22 -19 -11 -39 19 -33 13 2
21 15 25 41 12 72 69 100 116 55z m73 -690 c96 -58 136 -176 91 -273 -23 -52
-85 -107 -144 -130 -56 -21 -155 -17 -204 8 -43 22 -93 75 -109 114 -21 48
-17 130 7 179 20 42 22 43 100 60 53 11 93 27 117 45 49 36 77 36 142 -3z
m-2761 -181 c38 -127 166 -344 279 -470 169 -190 377 -330 611 -411 461 -161
967 -83 1357 207 87 65 236 215 289 289 28 40 47 57 63 58 12 0 22 -3 22 -6 0
-19 -125 -166 -213 -251 -375 -361 -891 -501 -1393 -377 -466 114 -856 454
-1037 905 -19 47 -38 101 -42 120 l-7 34 29 -28 c17 -15 36 -47 42 -70z m2269
47 c125 -151 7 -376 -198 -377 -103 -1 -196 59 -230 148 -17 45 -14 130 7 173
l18 37 160 26 c215 36 208 36 243 -7z m-1389 -23 c32 -34 99 -51 200 -51 l69
0 18 -37 c96 -203 -125 -416 -331 -319 -169 78 -187 303 -32 412 41 30 44 29
76 -5z m861 -94 c55 -126 -29 -275 -173 -308 -109 -24 -214 27 -263 127 -23
46 -26 63 -21 110 3 30 14 69 24 87 l19 32 159 12 c87 7 168 14 179 16 30 4
51 -17 76 -76z m-1145 -14 c-4 -16 -10 -50 -14 -77 l-6 -48 -43 57 c-23 32
-41 60 -38 62 2 2 26 10 52 17 27 8 51 14 53 15 2 0 0 -11 -4 -26z m-132 -149
c-43 -36 -146 -94 -166 -94 -24 0 -77 53 -77 78 0 19 35 72 48 72 4 0 13 -10
20 -21 10 -15 11 -24 3 -32 -15 -15 -14 -37 2 -37 6 0 46 23 87 50 l75 50 17
-23 c17 -21 17 -23 -9 -43z m88 -54 c19 -11 49 -59 49 -81 0 -16 -140 -159
-156 -159 -7 0 -17 8 -23 17 -7 14 -2 24 27 49 36 31 37 32 18 52 l-18 21 -39
-31 c-38 -30 -40 -31 -57 -14 -16 17 -13 21 56 87 75 70 101 81 143 59z m1334
-97 c19 -9 35 -20 35 -25 0 -4 -43 -28 -96 -54 -235 -113 -515 -134 -758 -57
l-81 25 52 24 c56 24 148 103 158 135 6 17 12 13 50 -29 95 -106 252 -136 380
-73 59 29 145 108 145 134 0 5 18 -7 40 -27 23 -20 56 -44 75 -53z m-1206 -17
c9 -11 6 -27 -14 -71 -14 -32 -24 -59 -22 -61 1 -1 26 15 54 37 45 35 54 39
73 29 12 -7 18 -15 14 -20 -53 -47 -188 -150 -198 -150 -34 0 -34 23 1 104 19
44 41 96 48 114 15 35 26 40 44 18z m1331 -101 c0 -7 -9 -19 -20 -26 -19 -14
-18 -17 31 -97 48 -79 50 -84 33 -97 -10 -7 -22 -11 -25 -9 -4 2 -28 40 -54
83 -45 77 -47 80 -71 69 -20 -10 -27 -9 -35 3 -14 22 -7 31 57 70 58 36 84 37
84 4z m-1113 -35 c50 -30 51 -56 3 -152 -50 -100 -51 -101 -74 -85 -18 13 -17
15 3 55 21 41 21 41 2 52 -31 16 -37 13 -56 -30 -20 -44 -23 -46 -50 -26 -17
12 -16 17 29 99 61 112 82 125 143 87z m934 -69 c38 -39 37 -66 -7 -108 l-36
-34 15 -38 c15 -38 15 -39 -8 -49 -20 -9 -26 -8 -34 6 -13 25 -81 203 -81 212
0 9 76 38 103 39 10 1 32 -12 48 -28z m-731 -13 c25 -27 28 -83 4 -74 -9 3
-19 6 -24 6 -4 0 -10 9 -13 20 -3 11 -12 20 -21 20 -25 0 -19 -15 19 -53 40
-40 45 -72 14 -111 -29 -37 -89 -37 -118 0 -12 15 -21 38 -21 51 0 21 4 24 28
21 19 -2 28 -9 30 -25 2 -14 10 -23 22 -23 34 0 29 28 -11 69 -43 43 -45 65
-11 104 22 24 76 22 102 -5z m540 0 c0 -2 11 -56 24 -120 12 -65 20 -120 18
-123 -3 -3 -16 -5 -28 -5 -19 0 -24 8 -34 58 -7 31 -18 85 -25 119 -11 55 -11
63 4 66 20 6 41 8 41 5z m-333 -40 c13 -13 23 -33 23 -50 0 -23 -4 -28 -25
-28 -18 0 -25 5 -25 20 0 15 -7 20 -25 20 -19 0 -25 -6 -29 -32 -6 -38 -9 -68
-7 -85 2 -19 38 -16 49 3 7 12 17 15 36 10 14 -3 26 -11 26 -16 0 -20 -47 -60
-77 -66 -27 -5 -37 -1 -64 25 -30 30 -31 34 -24 88 8 69 21 104 42 121 26 19
74 14 100 -10z m210 -4 c21 -21 24 -32 20 -62 -4 -19 -13 -42 -21 -50 -12 -12
-10 -20 10 -55 30 -52 30 -57 0 -57 -17 0 -32 13 -55 48 l-32 47 3 -50 c3 -47
2 -50 -23 -53 l-26 -3 -7 103 c-4 57 -10 113 -13 125 -5 23 9 29 80 32 29 1
44 -5 64 -25z"/>
<path d="M3038 3018 c-23 -19 -58 -74 -58 -91 0 -19 27 -29 48 -18 10 5 27 27
40 49 20 37 21 42 6 56 -19 19 -17 19 -36 4z"/>
<path d="M3177 2842 c-37 -37 -45 -50 -35 -60 19 -19 31 -15 72 27 36 37 45
70 21 78 -6 2 -32 -18 -58 -45z"/>
<path d="M2185 2123 c-40 -11 -75 -45 -86 -83 -10 -34 -9 -44 9 -78 20 -38 20
-40 2 -45 -23 -6 -37 3 -41 28 -5 26 -47 47 -70 34 -10 -5 -31 -9 -47 -9 -36
0 -72 -37 -72 -74 0 -15 11 -37 25 -52 14 -14 25 -31 25 -38 0 -30 29 -39 114
-34 79 5 85 4 90 -15 3 -11 -2 -29 -10 -41 -19 -27 -18 -86 2 -114 20 -29 66
-52 104 -52 42 0 96 24 109 48 7 13 25 22 53 26 62 9 142 6 146 -5 7 -19 34
-39 52 -39 10 0 40 18 66 40 32 26 54 38 64 33 8 -4 55 -6 103 -6 128 2 155
27 137 125 -7 34 -4 47 11 66 20 26 26 87 9 97 -5 3 -10 34 -10 69 0 48 -4 67
-18 79 -28 26 -61 20 -93 -14 -29 -31 -30 -31 -73 -19 -24 6 -54 9 -65 5 -16
-5 -29 1 -51 25 -23 25 -35 31 -53 26 -12 -4 -55 -8 -96 -10 -70 -2 -76 -4
-101 -34 -33 -40 -52 -41 -67 -3 -6 16 -22 37 -37 46 -27 18 -96 28 -131 18z
m120 -58 c32 -31 32 -59 0 -91 -26 -25 -26 -26 -8 -56 10 -17 30 -40 46 -51
24 -19 31 -20 62 -8 61 22 79 -18 21 -46 -56 -26 -118 3 -156 75 -10 21 -19
31 -20 23 0 -19 -29 -51 -45 -51 -9 0 -11 17 -7 65 3 45 1 69 -9 81 -11 13
-10 17 2 25 23 15 44 5 44 -20 0 -30 18 -37 39 -16 22 22 20 32 -9 51 -25 16
-55 14 -85 -5 -12 -9 -13 -15 -2 -43 15 -41 1 -59 -28 -33 -23 20 -26 63 -7
87 36 45 123 53 162 13z m268 -75 c3 -36 8 -75 12 -87 6 -20 4 -23 -22 -23
l-30 0 3 67 c2 44 -1 70 -8 75 -9 5 -7 13 7 28 25 28 32 17 38 -60z m72 54 c0
-10 -8 -20 -17 -22 -18 -3 -26 27 -11 42 12 11 28 0 28 -20z m-151 -63 c3 -38
9 -76 12 -85 5 -12 -1 -16 -23 -16 l-29 0 4 66 c3 49 1 69 -9 75 -11 8 -11 12
5 24 10 8 22 12 26 10 4 -2 10 -36 14 -74z m441 70 c3 -6 -2 -14 -11 -19 -13
-7 -14 -12 -3 -29 16 -27 6 -50 -28 -65 l-28 -12 42 -4 c41 -3 57 -19 47 -46
-6 -16 -47 -36 -75 -36 -28 0 -61 19 -53 31 10 17 12 73 2 91 -10 20 21 58 47
58 8 0 15 9 15 20 0 21 33 29 45 11z m-147 -43 c7 -7 12 -24 12 -39 0 -15 5
-31 11 -34 7 -5 4 -14 -7 -26 -25 -28 -33 -24 -36 24 -2 29 -8 42 -18 42 -16
0 -19 -36 -5 -67 6 -15 2 -18 -23 -18 -29 0 -31 1 -25 35 3 20 1 41 -6 49 -14
17 11 41 34 33 8 -4 17 -2 20 3 8 14 29 12 43 -2z m-138 -48 c0 -21 5 -42 10
-45 20 -12 10 -25 -19 -25 -29 0 -29 2 -24 36 4 23 2 39 -6 44 -9 5 -8 11 4
24 23 23 35 11 35 -34z m-229 14 c15 -18 14 -71 -3 -91 -29 -35 -98 0 -98 51
0 47 71 76 101 40z m-391 -45 c0 -5 -7 -9 -16 -9 -12 0 -15 -10 -13 -45 2 -33
-2 -50 -15 -63 -17 -16 -17 -15 -14 18 2 28 0 35 -16 35 -10 0 -24 8 -30 18
-17 26 5 51 50 57 42 6 54 4 54 -11z m10 -34 c0 -8 8 -15 19 -15 11 0 21 -9
25 -22 9 -36 7 -48 -9 -48 -9 0 -15 6 -14 13 3 25 -1 38 -11 32 -6 -4 -8 -15
-5 -26 4 -13 2 -19 -8 -19 -11 0 -16 14 -19 46 -2 25 -1 47 1 50 9 9 21 3 21
-11z m123 -28 c7 -18 -11 -57 -26 -57 -16 0 -37 20 -37 36 0 34 51 51 63 21z
m123 -52 c22 -34 10 -49 -27 -30 -29 15 -53 12 -47 -6 2 -5 23 -19 48 -31 54
-28 75 -64 60 -104 -6 -15 -18 -33 -28 -40 -21 -16 -86 -18 -113 -3 -47 25
-41 103 8 116 37 9 54 -15 26 -34 -27 -18 -30 -48 -7 -57 29 -11 53 -6 67 15
24 33 9 58 -49 84 -48 21 -54 27 -54 54 0 16 5 33 12 37 10 6 57 20 80 23 4 1
15 -10 24 -24z m525 -37 c13 -25 -4 -48 -37 -48 -13 0 -24 -5 -24 -11 0 -7 11
-8 29 -4 35 7 50 -10 22 -24 -44 -24 -91 1 -91 49 0 62 73 90 101 38z m107 8
c3 -16 0 -18 -22 -12 -33 8 -34 -2 -1 -14 50 -19 40 -66 -15 -70 -43 -4 -50
-1 -50 20 0 22 19 27 37 9 8 -8 13 -8 18 0 4 7 -6 16 -24 22 -22 8 -31 17 -31
33 0 31 9 37 50 34 25 -2 36 -8 38 -22z m-228 -26 c17 -40 -5 -85 -42 -85 -15
0 -24 -4 -21 -11 4 -12 -22 -44 -38 -44 -5 0 -9 29 -9 64 0 43 -4 66 -12 69
-20 6 12 39 33 34 9 -3 22 -1 29 3 21 13 48 -1 60 -30z m-156 14 c24 -24 20
-80 -6 -98 -12 -9 -28 -16 -35 -16 -22 0 -53 39 -53 65 0 51 61 83 94 49z
m-106 -16 c3 -13 -3 -16 -25 -15 -24 2 -28 -2 -28 -23 0 -22 4 -25 33 -22 33
3 40 -6 20 -26 -20 -20 -65 -14 -82 10 -20 28 -20 48 0 76 19 28 77 28 82 0z"/>
<path d="M2860 1974 c0 -9 7 -14 17 -12 25 5 28 28 4 28 -12 0 -21 -6 -21 -16z"/>
<path d="M2877 1892 c-15 -2 -25 -8 -22 -13 8 -12 52 -12 60 0 7 13 -5 17 -38
13z"/>
<path d="M2357 1945 c-9 -23 3 -45 25 -45 15 0 19 6 16 27 -3 31 -32 43 -41
18z"/>
<path d="M1947 1913 c-12 -11 -8 -23 8 -23 8 0 15 7 15 15 0 16 -12 20 -23 8z"/>
<path d="M2745 1760 c-3 -5 1 -10 9 -10 8 0 18 5 21 10 3 6 -1 10 -9 10 -8 0
-18 -4 -21 -10z"/>
<path d="M2616 1734 c-8 -32 -6 -35 22 -27 16 4 22 12 20 27 -5 32 -34 32 -42
0z"/>
<path d="M2481 1746 c-9 -11 -10 -20 -2 -35 16 -28 43 -16 39 17 -4 30 -20 38
-37 18z"/>
<path d="M1444 1096 c-18 -14 -18 -15 0 -35 15 -16 22 -18 33 -10 31 26 0 69
-33 45z"/>
<path d="M1782 848 c-17 -17 -15 -23 13 -36 21 -10 26 -9 34 7 17 31 -21 55
-47 29z"/>
<path d="M2706 791 c-10 -16 6 -42 23 -39 9 2 17 13 19 26 3 16 -2 22 -17 22
-11 0 -22 -4 -25 -9z"/>
<path d="M2380 736 c0 -28 12 -46 31 -46 28 0 36 30 14 46 -24 18 -45 18 -45
0z"/>
</g>
</svg>
