<svg width="80" height="23" viewBox="0 0 80 23" fill="none" xmlns="http://www.w3.org/2000/svg">
<path d="M2.02667 20.9466L10.4212 3.66409C10.4212 3.66409 3.07596 7.00909 1.50199 10.9116C-0.0719832 14.8141 0.427102 18.4038 1.50201 20.9466" stroke="#499A18" stroke-linecap="round" stroke-linejoin="round"/>
<path d="M1.49646 20.9925C1.49646 20.9925 27.2102 -8.60087 18.8157 4.2216C10.4212 17.0441 19.6707 6.63145 14.9973 14.0678C10.324 21.5041 1.49646 20.9925 1.49646 20.9925Z" stroke="#499A18" stroke-linejoin="round"/>
<path d="M26.4264 9.84138C27.7811 9.84138 28.7837 10.0654 29.4344 10.5134C30.0957 10.9507 30.4264 11.7294 30.4264 12.8494C30.4264 13.9694 30.1011 14.86 29.4504 15.5214C28.7997 16.172 27.7491 16.4974 26.2984 16.4974H24.9544L24.9064 19.9694L26.1544 20.0814C26.1544 20.38 26.0637 20.7 25.8824 21.0414H22.2824L22.2344 20.4974C22.6824 20.3267 23.1411 20.1987 23.6104 20.1134C23.5464 15.9534 23.4931 12.86 23.4504 10.8334C23.1624 10.78 22.6931 10.652 22.0424 10.4494L22.1224 9.84138H26.4264ZM26.1384 15.4574C27.0557 15.4467 27.7544 15.2174 28.2344 14.7694C28.7144 14.3107 28.9544 13.708 28.9544 12.9614C28.9544 12.2147 28.7197 11.6974 28.2504 11.4094C27.7811 11.1107 27.0291 10.9614 25.9944 10.9614C25.8024 10.9614 25.4771 10.9667 25.0184 10.9774C25.0184 10.988 25.0024 12.4867 24.9704 15.4734L26.1384 15.4574ZM33.4855 9.15338C33.8162 9.15338 34.0508 9.16405 34.1895 9.18538C34.1895 9.55871 34.1202 9.98538 33.9815 10.4654C33.8855 16.7587 33.8375 19.9214 33.8375 19.9534L35.1815 20.0814C35.1815 20.38 35.0908 20.7 34.9095 21.0414H31.2295L31.1815 20.4814C31.6722 20.3107 32.1522 20.1827 32.6215 20.0974L32.4615 10.4174C31.8748 10.3854 31.4055 10.3214 31.0535 10.2254L31.1175 9.39338C31.6615 9.23338 32.4508 9.15338 33.4855 9.15338ZM42.4763 15.8094L42.3963 19.9374C42.8549 19.9694 43.3136 20.044 43.7723 20.1614L43.7403 20.7214C43.5696 20.8067 43.2603 20.9027 42.8123 21.0094C42.3749 21.1054 41.9429 21.1534 41.5163 21.1534C41.3243 20.7694 41.2176 20.4014 41.1963 20.0494C39.9803 20.8494 39.1269 21.2494 38.6363 21.2494C37.8789 21.2494 37.2709 21.0467 36.8123 20.6414C36.3536 20.236 36.1243 19.6707 36.1243 18.9454C36.1243 17.2707 37.1483 16.4067 39.1963 16.3534C40.3909 16.3214 40.9936 16.3054 41.0043 16.3054L40.9883 15.7614C40.9669 15.0254 40.8283 14.4974 40.5723 14.1774C40.3163 13.8467 39.8576 13.6814 39.1963 13.6814C38.9189 13.6814 38.6203 13.7454 38.3003 13.8734L37.9163 15.4734C37.8629 15.484 37.7723 15.4894 37.6443 15.4894L36.9883 15.4414C36.8176 14.9827 36.7269 14.348 36.7163 13.5374C36.9189 13.4307 37.3829 13.2707 38.1083 13.0574C38.8336 12.8334 39.2976 12.7214 39.5003 12.7214C40.5883 12.7214 41.3563 12.9614 41.8043 13.4414C42.2523 13.9214 42.4763 14.7107 42.4763 15.8094ZM38.9883 20.1614C39.2976 20.1614 40.0123 19.8147 41.1323 19.1214L41.0523 17.1214C40.3269 17.1854 39.7189 17.244 39.2283 17.2974C38.7376 17.3507 38.3429 17.4947 38.0443 17.7294C37.7456 17.9534 37.5963 18.3107 37.5963 18.8014C37.5963 19.708 38.0603 20.1614 38.9883 20.1614ZM49.6613 12.7214C50.6853 12.7214 51.4266 12.9774 51.8853 13.4894C52.3439 13.9907 52.5733 14.7587 52.5733 15.7934C52.5733 16.092 52.5306 17.4787 52.4453 19.9534L53.7893 20.0814C53.7893 20.38 53.6986 20.7 53.5173 21.0414H49.8373L49.7893 20.4814C50.2799 20.3107 50.7599 20.1827 51.2293 20.0974C51.1653 17.3027 51.1066 15.7507 51.0533 15.4414C51.0106 15.1214 50.9359 14.844 50.8293 14.6094C50.7226 14.3747 50.5626 14.2094 50.3493 14.1134C50.1359 14.0174 49.8533 13.9694 49.5013 13.9694C48.7973 13.9694 48.1146 14.14 47.4533 14.4814C47.3893 16.9134 47.3466 18.7374 47.3253 19.9534L48.6693 20.0814C48.6693 20.38 48.5786 20.7 48.3973 21.0414H44.7173L44.6693 20.4814C45.1599 20.3107 45.6399 20.1827 46.1093 20.0974C46.0453 17.388 45.9919 15.3827 45.9493 14.0814C45.3626 14.0494 44.8933 13.9854 44.5413 13.8894L44.6053 13.0574C45.1813 12.8974 46.0186 12.8174 47.1173 12.8174C47.2453 13.0094 47.3413 13.2867 47.4053 13.6494C47.8639 13.404 48.3226 13.1907 48.7813 13.0094C49.2506 12.8174 49.5439 12.7214 49.6613 12.7214ZM55.7126 20.0494L55.5846 14.0174H54.3526L54.3046 13.4574C54.4113 13.3827 54.7206 13.244 55.2326 13.0414L56.5446 10.9934C56.758 11.0147 56.9233 11.068 57.0406 11.1534L57.0246 12.9134C57.8246 12.9134 58.4806 12.9667 58.9926 13.0734C58.9926 13.3614 58.902 13.676 58.7206 14.0174H56.9926C56.9713 15.2974 56.95 17.2387 56.9286 19.8414C57.526 19.8734 58.1233 19.98 58.7206 20.1614L58.7046 20.7214C58.5553 20.8174 58.1713 20.9294 57.5526 21.0574C56.9446 21.1854 56.4433 21.2494 56.0486 21.2494C55.9953 21.164 55.926 20.9827 55.8406 20.7054C55.7553 20.4174 55.7126 20.1987 55.7126 20.0494ZM61.4191 20.0174C61.7925 20.1774 62.2458 20.2574 62.7791 20.2574C63.3231 20.2574 63.7498 20.156 64.0591 19.9534C64.3685 19.7507 64.5231 19.4734 64.5231 19.1214C64.5231 18.7694 64.3791 18.476 64.0911 18.2414C63.8031 18.0067 63.4511 17.7987 63.0351 17.6174C62.6191 17.436 62.2031 17.244 61.7871 17.0414C61.3711 16.8387 61.0191 16.572 60.7311 16.2414C60.4431 15.9107 60.2991 15.5267 60.2991 15.0894C60.2991 14.3534 60.5445 13.7774 61.0351 13.3614C61.5258 12.9347 62.2031 12.7214 63.0671 12.7214C63.9418 12.7214 64.7631 12.9187 65.5311 13.3134C65.5418 13.42 65.5471 13.708 65.5471 14.1774C65.5471 14.636 65.4991 15.0307 65.4031 15.3614C65.1471 15.4467 64.8431 15.4894 64.4911 15.4894L63.9631 13.8574C63.7285 13.74 63.4085 13.6814 63.0031 13.6814C62.6085 13.6814 62.2938 13.788 62.0591 14.0014C61.8245 14.204 61.7071 14.4654 61.7071 14.7854C61.7071 15.0947 61.8511 15.3667 62.1391 15.6014C62.4378 15.836 62.7951 16.0494 63.2111 16.2414C63.6271 16.4227 64.0431 16.62 64.4591 16.8334C64.8751 17.036 65.2271 17.308 65.5151 17.6494C65.8138 17.98 65.9631 18.364 65.9631 18.8014C65.9631 19.5694 65.6645 20.172 65.0671 20.6094C64.4805 21.036 63.7551 21.2494 62.8911 21.2494C62.4218 21.2494 61.9205 21.1747 61.3871 21.0254C60.8538 20.8654 60.4058 20.6627 60.0431 20.4174C60.0431 19.7027 60.1071 19.068 60.2351 18.5134C60.4805 18.4707 60.8111 18.4494 61.2271 18.4494L61.4191 20.0174Z" fill="black"/>
</svg>
